<svg xmlns="http://www.w3.org/2000/svg" baseProfile="full" version="1.1" width="330px" height="330px" style="fill: none; width: 330px; height: 330px;"><path d="M105,105 L105,105 L75,150 L75,195 L75,210 L120,270 L150,270 L180,210 L180,195 L180,150 L150,105 L105,105 " style="stroke-width: 10; stroke-linecap: round; stroke-linejoin: round; stroke: rgb(204, 204, 204); fill: rgb(204, 204, 204);"/><path d="M135,30 L135,30 L105,60 L105,105 L135,135 L150,105 L150,75 L210,75 L135,30 M90,120 L90,120 L45,165 L75,255 L105,165 L90,120 M165,120 L165,120 L165,150 L180,240 L195,210 L195,165 L165,120 " style="stroke-width: 10; stroke-linecap: round; stroke-linejoin: round; stroke: rgb(153, 153, 153); fill: rgb(153, 153, 153);"/><path d="M105,240 L105,240 L120,270 L105,300 L150,285 L120,270 L105,240 M150,240 L150,240 L150,270 L180,270 L150,285 L150,270 " style="stroke-width: 10; stroke-linecap: round; stroke-linejoin: round; stroke: rgb(0, 0, 0); fill: rgb(0, 0, 0);"/></svg>